<svg id="Capa_1" enable-background="new 0 0 475.293 475.293" height="512" viewBox="0 0 475.293 475.293" width="512" xmlns="http://www.w3.org/2000/svg"><path d="m252.5 89.117h-29.706v29.706h-7.426c-36.857 0-66.838 29.981-66.838 66.838s29.981 66.838 66.838 66.838h44.559c20.481 0 37.132 16.652 37.132 37.132s-16.652 37.132-37.132 37.132h-111.398v29.706h74.265v29.706h29.706v-29.705h7.426c36.857 0 66.838-29.982 66.838-66.838s-29.982-66.838-66.838-66.838h-44.559c-20.481 0-37.132-16.652-37.132-37.132s16.652-37.132 37.132-37.132h111.397v-29.706h-74.264z"/><path d="m237.647 0c-131.037 0-237.647 106.61-237.647 237.647s106.61 237.647 237.647 237.647 237.647-106.61 237.647-237.647-106.611-237.647-237.647-237.647zm0 445.587c-114.66 0-207.941-93.28-207.941-207.941s93.28-207.941 207.941-207.941 207.941 93.28 207.941 207.941-93.281 207.941-207.941 207.941z"/></svg>