<svg id="Layer_1" enable-background="new 0 0 512 512" height="512" viewBox="0 0 512 512" width="512" xmlns="http://www.w3.org/2000/svg"><path d="m437.02 74.98c-48.353-48.351-112.64-74.98-181.02-74.98s-132.667 26.629-181.02 74.98c-48.351 48.353-74.98 112.64-74.98 181.02s26.629 132.667 74.98 181.02c48.353 48.351 112.64 74.98 181.02 74.98s132.667-26.629 181.02-74.98c48.351-48.353 74.98-112.64 74.98-181.02s-26.629-132.667-74.98-181.02zm-21.214 340.826c-42.686 42.686-99.439 66.194-159.806 66.194s-117.12-23.508-159.806-66.194-66.194-99.439-66.194-159.806 23.508-117.12 66.194-159.806 99.439-66.194 159.806-66.194 117.12 23.508 159.806 66.194 66.194 99.439 66.194 159.806-23.508 117.12-66.194 159.806z"/><path d="m256.229 60.747c-107.647 0-195.224 87.577-195.224 195.224s87.577 195.224 195.224 195.224 195.224-87.577 195.224-195.224-87.577-195.224-195.224-195.224zm0 360.448c-91.105 0-165.224-74.119-165.224-165.224s74.119-165.224 165.224-165.224 165.224 74.119 165.224 165.224-74.119 165.224-165.224 165.224z"/><path d="m291.229 240.971h-20v-42.346c0-8.284-6.716-15-15-15s-15 6.716-15 15v57.346c0 8.284 6.716 15 15 15h35c8.284 0 15-6.716 15-15s-6.716-15-15-15z"/><path d="m256.229 347.761c-8.284 0-15 6.716-15 15v20.093c0 8.284 6.716 15 15 15s15-6.716 15-15v-20.093c0-8.284-6.716-15-15-15z"/><path d="m256 160.136c8.284 0 15-6.716 15-15v-20.093c0-8.284-6.716-15-15-15s-15 6.716-15 15v20.093c0 8.284 6.716 15 15 15z"/><path d="m167.478 256c0-8.284-6.716-15-15-15h-20.093c-8.284 0-15 6.716-15 15s6.716 15 15 15h20.093c8.284 0 15-6.716 15-15z"/><path d="m381.71 240.971h-20.093c-8.284 0-15 6.716-15 15s6.716 15 15 15h20.093c8.284 0 15-6.716 15-15s-6.715-15-15-15z"/><path d="m344.017 320.863c-5.857-5.858-15.355-5.858-21.213 0s-5.858 15.355 0 21.213l14.208 14.208c2.929 2.929 6.768 4.394 10.606 4.394s7.678-1.464 10.606-4.394c5.858-5.858 5.858-15.355 0-21.213z"/><path d="m168.759 188.354c2.929 2.929 6.768 4.393 10.606 4.393s7.678-1.465 10.607-4.394c5.857-5.858 5.857-15.355 0-21.213l-14.208-14.208c-5.858-5.857-15.355-5.857-21.213 0-5.857 5.858-5.857 15.355 0 21.213z"/><path d="m173.95 318.734-14.208 14.208c-5.858 5.858-5.858 15.355 0 21.213 2.929 2.929 6.768 4.394 10.607 4.394 3.838 0 7.678-1.465 10.606-4.393l14.208-14.208c5.858-5.858 5.858-15.355 0-21.213s-15.355-5.858-21.213-.001z"/><path d="m332.419 196.437c3.839 0 7.678-1.464 10.606-4.394l14.208-14.208c5.858-5.858 5.858-15.355 0-21.213-5.857-5.858-15.355-5.858-21.213 0l-14.208 14.208c-5.858 5.858-5.858 15.355 0 21.213 2.93 2.93 6.769 4.394 10.607 4.394z"/></svg>